<?xml version="1.0"?>
<svg xmlns="http://www.w3.org/2000/svg" version="1" width="933.333" height="933.333" viewBox="0 0 700 700">
    <path d="M0 350v350h700V0H0v350zm377.3-111.1c18.3 37.1 27.1 54 28.4 54.3 1 .3 28 4.3 60 8.9 32.1 4.6 58.3 8.7 58.3 9 0 .4-19.3 19.5-43 42.5-24 23.3-43 42.6-43 43.6 0 .9 4.5 27.9 10 59.9 5.5 32.1 9.8 58.4 9.7 58.6-.2.2-24.3-12.3-53.6-27.7-29.3-15.4-53.6-28-54.1-28s-24.8 12.6-54.1 28-53.4 27.9-53.6 27.7c-.1-.2 4.2-26.5 9.7-58.6 5.5-32 10-59 10-59.9 0-1-19-20.3-43-43.6-23.7-23-43-42.1-43-42.5 0-.3 26.2-4.4 58.3-9 32-4.6 59-8.6 60-8.9 1.3-.3 10.1-17.2 28.4-54.3 14.7-29.7 26.9-53.9 27.3-53.9.4 0 12.6 24.2 27.3 53.9z" />
</svg>