<?xml version="1.0" standalone="no"?>
<!DOCTYPE svg PUBLIC "-//W3C//DTD SVG 20010904//EN"
 "http://www.w3.org/TR/2001/REC-SVG-20010904/DTD/svg10.dtd">
<svg version="1.0" xmlns="http://www.w3.org/2000/svg"
 width="512.000000pt" height="512.000000pt" viewBox="0 0 512.000000 512.000000"
 preserveAspectRatio="xMidYMid meet">
<metadata>
Created by potrace 1.11, written by Peter Selinger 2001-2013
</metadata>
<g transform="translate(0.000000,512.000000) scale(0.100000,-0.100000)"
fill="#000000" stroke="none">
<path d="M0 2560 l0 -2560 2560 0 2560 0 0 2560 0 2560 -2560 0 -2560 0 0
-2560z m2885 2346 c785 -115 1455 -602 1801 -1311 113 -233 180 -449 221 -715
23 -156 24 -480 0 -641 -75 -507 -294 -953 -649 -1324 l-114 -119 -455 228
c-249 126 -462 236 -473 245 -10 9 -28 34 -39 56 -19 35 -22 60 -25 196 l-4
156 51 69 c77 106 162 260 212 382 40 99 48 113 86 137 51 32 95 86 126 152
20 44 22 66 25 265 4 242 -4 301 -47 371 l-29 45 -5 313 c-4 287 -6 320 -26
388 -113 382 -449 581 -980 581 -483 0 -816 -171 -949 -487 -51 -121 -55 -150
-60 -482 l-4 -313 -29 -45 c-43 -70 -51 -129 -47 -371 3 -210 4 -219 29 -273
15 -31 42 -74 61 -95 24 -27 46 -72 72 -147 43 -129 117 -279 193 -396 l54
-84 -3 -168 -3 -167 -30 -43 c-27 -38 -72 -66 -427 -259 -219 -120 -408 -224
-422 -233 -24 -16 -25 -16 -134 98 -354 367 -575 819 -649 1324 -21 143 -23
474 -4 611 85 621 399 1179 876 1560 336 267 775 453 1185 499 52 6 111 13
130 15 69 8 387 -4 485 -18z"/>
</g>
</svg>
