<?xml version="1.0" standalone="no"?>
<!DOCTYPE svg PUBLIC "-//W3C//DTD SVG 20010904//EN"
 "http://www.w3.org/TR/2001/REC-SVG-20010904/DTD/svg10.dtd">
<svg version="1.0" xmlns="http://www.w3.org/2000/svg"
 width="512.000000pt" height="512.000000pt" viewBox="0 0 512.000000 512.000000"
 preserveAspectRatio="xMidYMid meet">
<metadata>
Created by potrace 1.14, written by Peter Selinger 2001-2017
</metadata>
<g transform="translate(0.000000,512.000000) scale(0.100000,-0.100000)"
fill="#000000" stroke="none">
<path d="M2320 5110 c-502 -52 -982 -248 -1365 -557 -288 -232 -517 -518 -684
-854 -124 -249 -204 -502 -247 -784 -26 -169 -26 -541 0 -710 71 -465 260
-899 543 -1250 232 -288 518 -517 854 -684 249 -124 502 -204 784 -247 169
-26 541 -26 710 0 465 71 899 260 1250 543 288 232 517 518 684 854 124 249
204 502 247 784 26 169 26 541 0 710 -71 465 -260 899 -543 1250 -232 288
-518 517 -854 684 -246 123 -506 205 -779 246 -124 19 -478 28 -600 15z m-183
-1681 c155 -21 360 -87 350 -113 -15 -35 -91 -212 -93 -214 -1 -2 -40 11 -86
28 -163 64 -275 81 -397 60 -239 -40 -392 -233 -420 -527 -10 -114 0 -277 24
-368 51 -196 181 -330 355 -366 96 -20 306 -6 435 30 61 17 113 31 118 31 4 0
7 -52 7 -116 l0 -115 -36 -15 c-110 -46 -193 -58 -399 -59 -223 0 -272 9 -400
70 -235 113 -364 338 -396 687 -20 219 12 412 99 588 39 80 61 109 137 186 64
64 110 101 160 126 160 82 352 113 542 87z m1418 -43 c240 -68 356 -210 371
-450 15 -232 -82 -418 -265 -510 -111 -56 -209 -76 -408 -83 l-173 -6 0 -318
0 -319 -145 0 -145 0 0 856 0 856 353 -4 c294 -4 362 -7 412 -22z"/>
<path d="M3080 2880 l0 -302 158 4 c129 4 167 8 217 26 77 28 124 67 155 128
22 42 25 61 25 149 0 120 -23 179 -88 226 -67 48 -125 61 -304 66 l-163 5 0
-302z"/>
</g>
</svg>
